<svg xmlns="http://www.w3.org/2000/svg" viewBox="0 0 448 512" width="100" height="40" fill="#FF9900">
    <!-- Font Awesome Free 6.x by @fontawesome - https://fontawesome.com License - https://fontawesome.com/license (Commercial License) Copyright 2022 Fonticons, Inc. -->
    <path d="M256 8C119 8 7.7 121.3 7.7 256c0 83.1 46.1 155.6 115.6 195.9V512h62.5c44.8 0 81.3-36.5 81.3-81.3 0-23.7-10.8-44.9-27.8-59.3-5.5-4.7-9.4-10.4-11.8-17-4-10.9-4-22.1 0-33 2.4-6.6 6.3-12.3 11.8-17 17.1-14.4 27.8-35.6 27.8-59.3 0-44.8-36.5-81.3-81.3-81.3H123.3V256c0-62.8 51-113.8 113.8-113.8 62.8 0 113.8 51 113.8 113.8 0 12.3-2.1 24.2-5.7 35.5h-54.8c-3.6-11.3-5.7-23.2-5.7-35.5 0-33.1-26.9-60-60-60-33.1 0-60 26.9-60 60 0 12.3 2.1 24.2 5.7 35.5h-54.8c-3.6-11.3-5.7-23.2-5.7-35.5 0-62.8 51-113.8 113.8-113.8 62.8 0 113.8 51 113.8 113.8 0 12.3-2.1 24.2-5.7 35.5h-54.8c-3.6-11.3-5.7-23.2-5.7-35.5 0-33.1-26.9-60-60-60-33.1 0-60 26.9-60 60 0 12.3 2.1 24.2 5.7 35.5h-54.8c-3.6-11.3-5.7-23.2-5.7-35.5 0-62.8 51-113.8 113.8-113.8z"/>
</svg>